<?xml version="1.0" encoding="UTF-8" standalone="no"?>
<!-- Created with Inkscape (http://www.inkscape.org/) -->

<svg
   width="512"
   height="512"
   viewBox="0 0 135.46666 135.46667"
   version="1.1"
   id="svg5"
   inkscape:version="1.1 (1:1.1+202105261517+ce6663b3b7)"
   sodipodi:docname="cover-art.svg"
   inkscape:export-filename="/home/adam/Documents/airconsole-you-talking-to-me/branding/cover-art.png"
   inkscape:export-xdpi="508"
   inkscape:export-ydpi="508"
   xmlns:inkscape="http://www.inkscape.org/namespaces/inkscape"
   xmlns:sodipodi="http://sodipodi.sourceforge.net/DTD/sodipodi-0.dtd"
   xmlns="http://www.w3.org/2000/svg"
   xmlns:svg="http://www.w3.org/2000/svg">
  <sodipodi:namedview
     id="namedview7"
     pagecolor="#505050"
     bordercolor="#eeeeee"
     borderopacity="1"
     inkscape:pageshadow="0"
     inkscape:pageopacity="0"
     inkscape:pagecheckerboard="0"
     inkscape:document-units="px"
     showgrid="false"
     inkscape:zoom="0.62126418"
     inkscape:cx="120.72159"
     inkscape:cy="210.05557"
     inkscape:window-width="1920"
     inkscape:window-height="1016"
     inkscape:window-x="0"
     inkscape:window-y="27"
     inkscape:window-maximized="1"
     inkscape:current-layer="layer1"
     units="px"
     height="512px" />
  <defs
     id="defs2" />
  <g
     inkscape:label="Layer 1"
     inkscape:groupmode="layer"
     id="layer1">
    <rect
       style="fill:#d6ffe9;fill-opacity:1;stroke:none;stroke-width:0.820709;stroke-linecap:round;stroke-linejoin:round;stroke-miterlimit:4;stroke-dasharray:none"
       id="rect989"
       width="135.46666"
       height="135.46666"
       x="0"
       y="0" />
    <g
       id="g7637"
       transform="translate(0.41887886,0.59827517)">
      <g
         id="g1222"
         transform="matrix(2.6669939,0,0,2.6669939,20.523206,-91.326978)">
        <path
           d="m 34.964451,62.049153 c 0.423333,-1.005417 -1.481667,-4.1275 -1.481667,-4.1275 a 14.261041,14.261041 0 0 0 5.979583,-8.307917 c 0.635,-3.042708 0.79375,-9.419166 -5.027083,-11.456458 -5.900208,-2.037292 -10.874375,1.719792 -10.874375,1.719792 l 0.423334,0.79375 c 0,0 -1.11125,1.481666 -1.42875,3.148541 -0.3175,1.666875 0.449791,1.322917 -0.264584,2.434167 -0.687916,1.084792 -1.852083,1.296458 -1.74625,2.2225 0.02646,0.396875 0.740834,0.449792 0.873125,0.79375 0.185209,0.47625 -0.370416,1.058333 -0.132291,1.455208 0.423333,0.79375 1.957916,0.423334 2.38125,1.217084 0.105833,0.238125 0.05292,0.582083 -0.132292,0.767291 -0.529167,0.449792 -1.74625,-0.582083 -2.06375,0.02646 -0.211667,0.396875 0.635,0.661458 0.740833,1.084791 0.132292,0.687917 -0.687916,1.42875 -0.343958,2.010834 0.714375,1.217083 3.96875,1.402291 3.96875,1.402291 0,0 2.037292,6.085417 3.148541,6.50875 0.740834,0.3175 5.635625,-0.899583 5.979584,-1.693333 z"
           fill="#004e64"
           strokeWidth=".3"
           strokeLinecap="butt"
           id="path840"
           style="stroke-width:0.264583" />
        <g
           stroke="#ff6b35"
           strokeWidth="4"
           strokeLinecap="round"
           id="g848"
           transform="matrix(-0.26458333,0,0,0.26458333,42.214034,19.87457)"
           style="stroke-width:3.02362;stroke-linecap:round;stroke-miterlimit:4;stroke-dasharray:none">
          <path
             d="M 85,121.2 H 99.7"
             id="path842"
             style="stroke-width:3.02362;stroke-linecap:round;stroke-miterlimit:4;stroke-dasharray:none" />
          <path
             d="m 85,126.8 12.5,7.5"
             id="path844"
             style="stroke-width:3.02362;stroke-linecap:round;stroke-miterlimit:4;stroke-dasharray:none" />
          <path
             d="m 85,115.6 12.5,-7.5"
             id="path846"
             style="stroke-width:3.02362;stroke-linecap:round;stroke-miterlimit:4;stroke-dasharray:none" />
        </g>
      </g>
      <text
         xml:space="preserve"
         style="font-size:26.4497px;line-height:1;font-family:sans-serif;word-spacing:0px;stroke-width:0.661243"
         x="7.8425555"
         y="69.5196"
         id="text3162"><tspan
           sodipodi:role="line"
           id="tspan3160"
           style="font-style:normal;font-variant:normal;font-weight:bold;font-stretch:normal;font-family:Dosis;-inkscape-font-specification:'Dosis Bold';stroke-width:0.661243"
           x="7.8425555"
           y="69.5196">You</tspan><tspan
           sodipodi:role="line"
           style="font-style:normal;font-variant:normal;font-weight:bold;font-stretch:normal;font-family:Dosis;-inkscape-font-specification:'Dosis Bold';stroke-width:0.661243"
           x="7.8425555"
           y="97.364105"
           id="tspan3164">talking</tspan><tspan
           sodipodi:role="line"
           style="font-style:normal;font-variant:normal;font-weight:bold;font-stretch:normal;font-family:Dosis;-inkscape-font-specification:'Dosis Bold';stroke-width:0.661243"
           x="7.8425555"
           y="125.20862"
           id="tspan3166">to me?</tspan></text>
    </g>
  </g>
</svg>
